<svg width="21" height="19" viewBox="0 0 21 19" fill="none" xmlns="http://www.w3.org/2000/svg">
<path fill-rule="evenodd" clip-rule="evenodd" d="M19.86 8.85134L12.3101 0.935184C11.9581 0.575027 11.3867 0.533193 10.9757 0.898807C10.6088 1.2244 10.5996 1.86104 10.9388 2.21572L16.9994 8.56029H1.60475C1.0831 8.56029 0.661018 8.97683 0.661018 9.4916C0.661018 10.0064 1.08312 10.4229 1.60475 10.4229H16.9994L10.9388 16.7675C10.5996 17.1222 10.6236 17.7425 10.9757 18.0844C11.348 18.4446 11.9636 18.4136 12.3101 18.048L19.86 10.1319C20.0812 9.91723 20.1217 9.70987 20.1254 9.49159C20.1254 9.27698 19.9927 8.98959 19.86 8.85134Z" fill="url(#paint0_linear_1_175)"/>
<defs>
<linearGradient id="paint0_linear_1_175" x1="0.661018" y1="2.17955" x2="18.5969" y2="18.4849" gradientUnits="userSpaceOnUse">
<stop stop-color="#665DCD"/>
<stop offset="0.447624" stop-color="#5FA4E6"/>
<stop offset="1" stop-color="#D2AB67"/>
</linearGradient>
</defs>
</svg>
